#!OML:ASF F:\VICON\USERDATA\INSTALL\rory3\rory3.ASF
:FULLY-SPECIFIED
:DEGREES
2484
root -12.4172 17.768 7.37843 -697.487 82.907 22.9277
lowerback 11.8051 3.46719 -1.63496
upperback 0.0402366 4.37216 -0.553683
thorax -6.65379 2.19151 -0.425469
lowerneck -19.489 -2.96038 -9.73263
upperneck 35.0897 -1.89414 5.68695
head 15.9165 -0.946355 3.9099
rclavicle -1.27222e-014 -1.39149e-015
rhumerus -36.8456 -17.385 -75.8357
rradius 36.0794
rwrist 6.33326
rhand -16.8562 11.1078
rfingers 7.12502
rthumb 9.37405 -18.6637
lclavicle -1.27222e-014 -1.39149e-015
lhumerus -32.3353 2.99793 78.7887
lradius 36.9512
lwrist -3.48991
lhand -23.7632 25.1028
lfingers 7.12502
lthumb 2.70609 55.0654
rfemur -9.70352 -7.79823 10.3737
rtibia 41.2222
rfoot -21.6186 -7.92199
rtoes 0.214651
lfemur -5.87238 -3.64096 -21.1838
ltibia 23.6406
lfoot -13.1828 -8.20928
ltoes -1.5898
2485
root -12.419 17.7685 7.32877 -699.083 82.3688 21.3495
lowerback 11.7679 3.55769 -1.69034
upperback 0.0301409 4.47951 -0.651922
thorax -6.64105 2.24443 -0.514479
lowerneck -19.4725 -2.94966 -9.69777
upperneck 35.0499 -1.89871 5.68495
head 15.8922 -0.94533 3.89919
rclavicle 2.21645e-014 4.37326e-015
rhumerus -36.8203 -17.2707 -76.1788
rradius 36.143
rwrist 6.42235
rhand -16.8606 11.1667
rfingers 7.12502
rthumb 9.36982 -18.605
lclavicle 2.21645e-014 4.37326e-015
lhumerus -32.3223 3.29259 78.476
lradius 36.8755
lwrist -3.62042
lhand -24.0919 25.2044
lfingers 7.12502
lthumb 2.38861 55.1707
rfemur -9.99146 -8.74191 10.9511
rtibia 42.1575
rfoot -21.822 -7.47593
rtoes -1.01909
lfemur -5.79687 -3.2767 -21.3952
ltibia 23.6453
lfoot -13.2895 -7.90117
ltoes -2.10052
2486
root -12.42 17.7734 7.28395 -701.345 81.8883 19.1283
lowerback 11.7053 3.497 -1.77466
upperback 0.0692126 4.39695 -0.526655
thorax -6.58004 2.20879 -0.316035
lowerneck -19.5639 -2.81157 -9.94913
upperneck 35.0168 -1.56669 5.60925
head 15.8655 -0.855239 3.9702
rclavicle 3.78312e-014 -1.19271e-015
rhumerus -36.6166 -16.6978 -76.4615
rradius 36.2836
rwrist 6.19844
rhand -16.1994 11.4243
rfingers 7.12502
rthumb 10.0078 -18.3177
lclavicle 3.78312e-014 -1.19271e-015
lhumerus -32.4141 4.20034 78.166
lradius 36.8377
lwrist -3.68023
lhand -24.128 25.4338
lfingers 7.12502
lthumb 2.35378 55.4005
rfemur -10.1943 -9.56061 11.7241
rtibia 42.9768
rfoot -21.9236 -7.19155
rtoes -3.2921
lfemur -5.71702 -2.93877 -21.4202
ltibia 23.708
lfoot -13.3455 -7.69616
ltoes -1.87606
2487
root -12.4203 17.7763 7.25039 -703.946 81.3941 16.4764
lowerback 11.4888 3.30446 -1.98202
upperback 0.106781 4.13736 -0.21606
thorax -6.45331 2.09308 0.184957
lowerneck -19.7853 -2.54492 -10.4911
upperneck 35.1023 -0.930682 5.59041
head 15.8983 -0.67165 4.18174
rclavicle 4.41302e-014 -7.95139e-015
rhumerus -36.1888 -15.4321 -76.8044
rradius 36.3645
rwrist 5.65874
rhand -15.1295 11.6008
rfingers 7.12502
rthumb 11.0398 -18.0889
lclavicle 4.41302e-014 -7.95139e-015
lhumerus -32.6763 5.50144 77.8444
lradius 36.8558
lwrist -3.50418
lhand -24.0004 25.4767
lfingers 7.12502
lthumb 2.47697 55.442
rfemur -10.3959 -10.2588 12.6859
rtibia 43.6855
rfoot -22.1186 -6.91063
rtoes -4.19814
lfemur -5.74986 -2.50129 -21.278
ltibia 23.8302
lfoot -13.4101 -7.63668
ltoes -1.13629
2488
root -12.419 17.7736 7.22315 -705.919 80.8557 14.4506
lowerback 11.2534 3.27794 -2.20404
upperback 0.123381 4.08743 -0.0720873
thorax -6.32894 2.07761 0.482541
lowerneck -19.906 -2.40091 -10.7027
upperneck 35.1449 -0.635818 5.62467
head 15.9166 -0.576026 4.29207
rclavicle 6.06293e-015 -2.5842e-015
rhumerus -35.9517 -14.494 -77.266
rradius 36.4702
rwrist 5.04126
rhand -15.0872 11.5979
rfingers 7.12502
rthumb 11.0807 -18.0896
lclavicle 6.06293e-015 -2.5842e-015
lhumerus -32.7891 6.07631 77.5841
lradius 36.8317
lwrist -3.12355
lhand -23.7161 25.2733
lfingers 7.12502
lthumb 2.75158 55.2353
rfemur -10.509 -11.1412 13.5608
rtibia 44.2889
rfoot -22.2609 -6.44182
rtoes -5.12218
lfemur -5.81422 -2.13209 -21.213
ltibia 24.0509
lfoot -13.6658 -7.30467
ltoes -1.89707
2489
root -12.4208 17.7695 7.18587 -707.332 80.4846 13.0383
lowerback 11.1718 3.2938 -2.1824
upperback 0.104693 4.11038 -0.113119
thorax -6.2989 2.0876 0.427803
lowerneck -19.8331 -2.34286 -10.5226
upperneck 35.0579 -0.611798 5.56041
head 15.85 -0.55068 4.22982
rclavicle 8.39865e-014 -3.97569e-015
rhumerus -35.9277 -14.4199 -77.6627
rradius 36.6097
rwrist 5.02022
rhand -15.4704 11.5555
rfingers 7.12502
rthumb 10.7111 -18.1515
lclavicle 8.39865e-014 -3.97569e-015
lhumerus -32.7781 6.29926 77.2932
lradius 36.7076
lwrist -2.97266
lhand -23.7964 25.3454
lfingers 7.12502
lthumb 2.67403 55.3084
rfemur -10.5266 -12.1824 14.3328
rtibia 44.8108
rfoot -22.4138 -5.81327
rtoes -6.30102
lfemur -5.91111 -2.10497 -21.2375
ltibia 24.3556
lfoot -13.931 -6.7426
ltoes -3.24709
2490
root -12.4257 17.7632 7.14169 -708.439 80.1782 11.8877
lowerback 11.0744 3.22984 -2.0838
upperback 0.0931718 4.0373 -0.15926
thorax -6.24374 2.04811 0.342301
lowerneck -19.8093 -2.25387 -10.3292
upperneck 34.9482 -0.518213 5.42701
head 15.7765 -0.505235 4.14692
rclavicle -1.21631e-014 7.35503e-015
rhumerus -35.8499 -14.2883 -77.998
rradius 36.7097
rwrist 5.36516
rhand -15.4209 11.5937
rfingers 7.12502
rthumb 10.7588 -18.1108
lclavicle -1.21631e-014 7.35503e-015
lhumerus -32.7704 6.59865 76.9931
lradius 36.574
lwrist -2.96943
lhand -24.2114 25.8814
lfingers 7.12502
lthumb 2.27315 55.8491
rfemur -10.5726 -13.0788 15.0761
rtibia 45.2435
rfoot -22.7469 -5.16585
rtoes -6.57457
lfemur -6.12815 -2.24926 -21.2739
ltibia 24.697
lfoot -14.0118 -6.2834
ltoes -3.27502
2491
root -12.4295 17.7565 7.09567 -708.902 79.8568 11.3637
lowerback 10.918 3.15839 -2.10728
upperback 0.107061 3.94292 -0.165273
thorax -6.13971 2.00239 0.374389
lowerneck -19.9553 -2.2147 -10.3986
upperneck 34.9961 -0.413615 5.40681
head 15.824 -0.477843 4.17346
rclavicle -1.5207e-014 -3.97569e-016
rhumerus -35.7535 -13.8937 -78.2562
rradius 36.9159
rwrist 5.68361
rhand -15.2602 11.3956
rfingers 7.12502
rthumb 10.9138 -18.3008
lclavicle -1.5207e-014 -3.97569e-016
lhumerus -32.759 7.02635 76.8093
lradius 36.4154
lwrist -2.98455
lhand -24.4302 25.9137
lfingers 7.12502
lthumb 2.06186 55.8835
rfemur -10.6053 -13.9953 15.6794
rtibia 45.5761
rfoot -22.949 -4.37625
rtoes -5.5614
lfemur -6.38121 -2.37776 -21.4074
ltibia 25.05
lfoot -14.0494 -5.98289
ltoes -2.39044
2492
root -12.4303 17.7493 7.0484 -709.541 79.5357 10.7521
lowerback 10.8729 3.10529 -2.04599
upperback 0.102015 3.87948 -0.189895
thorax -6.11199 1.96908 0.327344
lowerneck -20.0552 -2.20556 -10.5388
upperneck 35.0925 -0.373347 5.5108
head 15.8919 -0.468895 4.25789
rclavicle -1.49213e-014 1.11319e-014
rhumerus -35.7622 -13.7912 -78.453
rradius 37.085
rwrist 6.15283
rhand -15.4999 11.3799
rfingers 7.12502
rthumb 10.6826 -18.3285
lclavicle -1.49213e-014 1.11319e-014
lhumerus -32.8075 7.40601 76.6078
lradius 36.3095
lwrist -2.89773
lhand -24.3913 25.7325
lfingers 7.12502
lthumb 2.09941 55.7019
rfemur -10.503 -14.806 16.288
rtibia 45.799
rfoot -23.0084 -3.7595
rtoes -5.45207
lfemur -6.51288 -2.28264 -21.5286
ltibia 25.3718
lfoot -14.1765 -5.73167
ltoes -2.48879
